<svg xmlns="http://www.w3.org/2000/svg" viewBox="0 0 1000 1000"><path d="M922 300.7H617c39.8-22.5 78.2-46.5 85.4-50.9.9-.6 1.7-1.2 2.5-1.9 27.7-23.9 42.5-49.7 44-76.5 1.4-24.6-8.7-49.3-29.1-71.4-13.1-14.2-36.4-22.4-49.1-26-16.7-4.8-54.4-.5-65.9 4.7-54 24.3-85.5 84.3-103.5 137.1-19.3-50.9-49.3-99.4-70.7-130.6-14.2-20.8-47.2-50.5-59.6-57.4-34.3-19.2-65.7-22.9-93.4-11.1-46.5 19.8-61.9 76.6-62.8 80.6-16.9 95.1 84.7 164.6 163.1 203.4H78c-11.3 0-20.5 9.2-20.5 20.5v201.6c0 11.3 9.2 20.5 20.5 20.5h33.8v426.3c0 11.3 9.2 20.5 20.5 20.5h735.4c11.3 0 20.5-9.2 20.5-20.5V543.2H922c11.3 0 20.5-9.2 20.5-20.5V321.2c0-11.3-9.2-20.5-20.5-20.5zM621.2 116.3c4.9-1.7 20.5-3.4 30.7-3.4 3.3 0 6 .2 7.5.6 15.8 4.5 26.7 10.6 30.2 14.4 12.9 14 19.1 27.9 18.3 41.3-.8 15-10.5 30.8-28.7 46.8-33.9 21.2-122.2 74.4-153.9 84.8h-3.2c8.6-52.2 37.3-156.7 99.1-184.5zM254.7 106c.1-.4 11.1-39.8 38.9-51.7 5.2-2.2 11-3.4 17.1-3.4 11.9 0 25.4 4.2 40.3 12.5 6.7 3.8 34.9 28.8 45.8 44.8 24.4 35.7 79.1 122.6 82.6 190.5-1.3-.7-2.6-1.4-4.1-1.8-66.9-21.5-237-98.2-220.6-190.9zM98.5 341.7h381v160.6h-381V341.7zm54.3 201.5h326.7V949H152.8V543.2zM847.2 949H520.5V543.2h326.7V949zm54.3-446.7h-381V341.7h381v160.6z"/></svg>