<svg xmlns="http://www.w3.org/2000/svg" width="512" height="512"><path d="M96 376a8 8 0 00-8 8v48a8 8 0 0016 0v-48a8 8 0 00-8-8zM128 376a8 8 0 00-8 8v48a8 8 0 0016 0v-48a8 8 0 00-8-8zM160 296a8 8 0 00-8 8v48a8 8 0 0016 0v-48a8 8 0 00-8-8zM160 376a8 8 0 00-8 8v48a8 8 0 0016 0v-48a8 8 0 00-8-8zM192 296a8 8 0 00-8 8v48a8 8 0 0016 0v-48a8 8 0 00-8-8zM192 376a8 8 0 00-8 8v48a8 8 0 0016 0v-48a8 8 0 00-8-8zM320 296a8 8 0 00-8 8v48a8 8 0 0016 0v-48a8 8 0 00-8-8zM320 376a8 8 0 00-8 8v48a8 8 0 0016 0v-48a8 8 0 00-8-8zM352 296a8 8 0 00-8 8v48a8 8 0 0016 0v-48a8 8 0 00-8-8zM352 376a8 8 0 00-8 8v48a8 8 0 0016 0v-48a8 8 0 00-8-8zM384 376a8 8 0 00-8 8v48a8 8 0 0016 0v-48a8 8 0 00-8-8zM416 376a8 8 0 00-8 8v48a8 8 0 0016 0v-48a8 8 0 00-8-8zM256 296a8 8 0 00-8 8v48a8 8 0 0016 0v-48a8 8 0 00-8-8zM256 376a8 8 0 00-8 8v48a8 8 0 0016 0v-48a8 8 0 00-8-8zM224 296a8 8 0 00-8 8v48a8 8 0 0016 0v-48a8 8 0 00-8-8zM224 376a8 8 0 00-8 8v48a8 8 0 0016 0v-48a8 8 0 00-8-8zM288 296a8 8 0 00-8 8v48a8 8 0 0016 0v-48a8 8 0 00-8-8zM288 376a8 8 0 00-8 8v48a8 8 0 0016 0v-48a8 8 0 00-8-8z"/><path d="M477.182 367.047l11.891-95.127A8 8 0 00496 264v-48a8 8 0 00-8-8h-20.261a47.969 47.969 0 00-30.595-79.726 47.985 47.985 0 00-73.125-55.265C352.12 57.379 332.99 48 312 48c-25.077 0-47.31 13.428-57.792 34.155A47.989 47.989 0 00192 128c0 .54.018 1.078.036 1.617a80.159 80.159 0 00-16.157 5.1 72.178 72.178 0 00-14.424-19.033A56.065 56.065 0 01144.234 80H152a8 8 0 008-8V56a24.027 24.027 0 00-24-24H88a24.027 24.027 0 00-24 24v16a8 8 0 008 8h7.766a56.061 56.061 0 01-17.221 35.685A71.307 71.307 0 0040 168a23.9 23.9 0 006.131 16A23.9 23.9 0 0040 200v8H24a8 8 0 00-8 8v48a8 8 0 006.927 7.92l11.925 95.4-15.918 29.18a23.956 23.956 0 0023.981 35.309l2.653 21.23C47.489 468.411 61.148 480 77.342 480h357.316c16.193 0 29.853-11.589 31.774-26.957l2.695-21.561a23.7 23.7 0 0014.362-2.751 24 24 0 009.577-32.562zM480 224v32h-63.389l-17.455-32zm-7.063 48l-8.874 71-38.725-71zM240 96a31.63 31.63 0 0114.806 3.633 8 8 0 0011.3-4.548C272.325 76.492 290.771 64 312 64c18.3 0 35.275 9.778 43.248 24.91a8 8 0 0013.012 1.636A32 32 0 01424 112a31.643 31.643 0 01-7.011 19.976 8 8 0 007.993 12.806A32 32 0 11432 208h-19.673a80.016 80.016 0 00-126.586-38.246q-2.691 2.177-5.174 4.573A79.981 79.981 0 00208 128a32.036 32.036 0 0132-32zm155.333 112H276.667a64.417 64.417 0 0119.133-25.8 64.01 64.01 0 0180.4 0 64.417 64.417 0 0119.133 25.8zm-213.666-58.34a64.039 64.039 0 0166.533 8.54 64.368 64.368 0 0120.744 30.222A80.1 80.1 0 00259.673 208H184v-8a23.9 23.9 0 00-6.131-16A23.9 23.9 0 00184 168a72.65 72.65 0 00-2.333-18.34zM373.336 224l-15.217 8.3a8 8 0 00-3.192 10.854L361.934 256H150.248l6.824-12.51a8 8 0 00-3.192-10.854L138.048 224zM80 56a8.009 8.009 0 018-8h48a8.009 8.009 0 018 8v8H80zm58.229 56H85.771a72.293 72.293 0 0010.038-32h32.382a72.293 72.293 0 0010.038 32zm-65.384 16h78.31A55.422 55.422 0 01168 168a8.009 8.009 0 01-8 8H64a8.009 8.009 0 01-8-8 55.421 55.421 0 0116.845-40zM56 200a8.009 8.009 0 018-8h96a8.009 8.009 0 018 8v8H56zm-24 56v-32h81.027l-17.454 32zm54.845 16l-38.874 71.269L39.062 272zM47.026 411.828A8.009 8.009 0 0139.989 416a7.9 7.9 0 01-3.817-.979 8.01 8.01 0 01-3.193-10.854l92.17-168.978 14.046 7.662zm403.529 39.231c-.922 7.378-7.756 12.941-15.9 12.941H77.342c-8.141 0-14.975-5.563-15.9-12.941l-3.405-27.242a24.009 24.009 0 003.033-4.327L120 311.456V352a8 8 0 0016 0v-48a7.993 7.993 0 00-7.581-7.979L141.521 272h229.14l13.1 24.012A7.994 7.994 0 00376 304v48a8 8 0 0016 0v-40.878l58.927 108.032a23.992 23.992 0 003.07 4.368zm29.117-41.14a8 8 0 01-14.7 1.574L372.8 242.516l14.047-7.662 92.173 168.977a7.953 7.953 0 01.652 6.088z"/></svg>