<svg width="254" height="34" fill="none" xmlns="http://www.w3.org/2000/svg"><path d="M37.253 32.898V18.445c0-5.54-3.373-9.154-9.154-9.154-2.89 0-6.022.964-8.19 4.095-1.686-2.65-4.095-4.095-7.708-4.095-2.409 0-4.818.723-6.745 3.373v-2.89H.398v23.124h5.058V20.131c0-4.095 2.168-6.022 5.54-6.022 3.373 0 5.06 2.168 5.06 6.022v12.767h5.058V20.131c0-4.095 2.408-6.022 5.54-6.022 3.372 0 5.058 2.168 5.058 6.022v12.767h5.54zm74.914-23.125h-8.19V2.788h-5.058v6.985h-4.577v4.577h4.577v10.599c0 5.3 2.167 8.43 7.949 8.43 2.168 0 4.576-.722 6.263-1.685l-1.446-4.336c-1.445.963-3.131 1.204-4.336 1.204-2.408 0-3.372-1.445-3.372-3.854V14.35h8.19V9.773zm42.877-.482c-2.89 0-4.818 1.446-6.022 3.373v-2.89h-5.058v23.124h5.058V19.89c0-3.854 1.686-6.022 4.818-6.022.963 0 2.168.241 3.131.482l1.446-4.818c-.964-.24-2.409-.24-3.373-.24zm-64.797 2.41c-2.409-1.687-5.781-2.41-9.395-2.41-5.78 0-9.635 2.891-9.635 7.468 0 3.854 2.89 6.022 7.95 6.745l2.408.24c2.65.482 4.095 1.205 4.095 2.41 0 1.685-1.927 2.89-5.3 2.89-3.372 0-6.021-1.205-7.708-2.409l-2.408 3.854c2.65 1.927 6.262 2.89 9.876 2.89 6.745 0 10.599-3.13 10.599-7.467 0-4.095-3.132-6.263-7.95-6.985l-2.408-.241c-2.168-.241-3.855-.723-3.855-2.168 0-1.686 1.687-2.65 4.336-2.65 2.891 0 5.782 1.205 7.227 1.927l2.168-4.095zm134.412-2.41c-2.89 0-4.817 1.446-6.022 3.373v-2.89h-5.058v23.124h5.058V19.89c0-3.854 1.686-6.022 4.818-6.022.963 0 2.168.241 3.131.482l1.446-4.818c-.964-.24-2.409-.24-3.373-.24zm-64.556 12.045c0 6.985 4.817 12.044 12.285 12.044 3.372 0 5.781-.723 8.19-2.65l-2.409-4.095c-1.927 1.445-3.854 2.168-6.022 2.168-4.095 0-6.986-2.89-6.986-7.467 0-4.336 2.891-7.227 6.986-7.468 2.168 0 4.095.723 6.022 2.168l2.409-4.095c-2.409-1.927-4.818-2.65-8.19-2.65-7.468 0-12.285 5.059-12.285 12.045zm46.731 0V9.773h-5.059v2.89c-1.686-2.167-4.095-3.372-7.226-3.372-6.504 0-11.563 5.059-11.563 12.045 0 6.985 5.059 12.044 11.563 12.044 3.372 0 5.781-1.205 7.226-3.373v2.891h5.059V21.336zm-18.548 0c0-4.095 2.65-7.468 6.986-7.468 4.095 0 6.985 3.132 6.985 7.468 0 4.095-2.89 7.467-6.985 7.467-4.336-.24-6.986-3.372-6.986-7.467zM127.824 9.29c-6.744 0-11.562 4.818-11.562 12.045 0 7.226 4.818 12.044 11.803 12.044 3.373 0 6.745-.964 9.395-3.132l-2.409-3.613c-1.927 1.445-4.336 2.409-6.745 2.409-3.131 0-6.263-1.445-6.985-5.54h17.102v-1.928c.241-7.467-4.095-12.285-10.599-12.285zm0 4.336c3.132 0 5.3 1.927 5.782 5.54h-12.045c.482-3.13 2.65-5.54 6.263-5.54zm125.5 7.709V.62h-5.058v12.044c-1.687-2.168-4.095-3.373-7.227-3.373-6.504 0-11.562 5.059-11.562 12.045 0 6.985 5.058 12.044 11.562 12.044 3.373 0 5.781-1.205 7.227-3.373v2.891h5.058V21.336zm-18.548 0c0-4.095 2.65-7.468 6.986-7.468 4.095 0 6.985 3.132 6.985 7.468 0 4.095-2.89 7.467-6.985 7.467-4.336-.24-6.986-3.372-6.986-7.467zm-169.1 0V9.773h-5.058v2.89c-1.686-2.167-4.095-3.372-7.226-3.372-6.504 0-11.563 5.059-11.563 12.045 0 6.985 5.059 12.044 11.563 12.044 3.372 0 5.781-1.205 7.226-3.373v2.891h5.059V21.336zm-18.788 0c0-4.095 2.65-7.468 6.986-7.468 4.094 0 6.985 3.132 6.985 7.468 0 4.095-2.89 7.467-6.986 7.467-4.335-.24-6.985-3.372-6.985-7.467z" fill="#fff"/></svg>