<svg width="281" height="175" fill="none" xmlns="http://www.w3.org/2000/svg"><path d="M178.439 19.17h-75.878v136.339h75.878V19.17z" fill="#FF5F00"/><path d="M107.378 87.34c0-27.702 13.008-52.272 33.001-68.17C125.685 7.608 107.137.622 86.903.622 38.968.622.186 39.404.186 87.34c0 47.935 38.782 86.717 86.717 86.717 20.234 0 38.782-6.985 53.476-18.548-19.993-15.657-33.001-40.468-33.001-68.17z" fill="#EB001B"/><path d="M280.814 87.34c0 47.935-38.782 86.717-86.718 86.717-20.234 0-38.782-6.985-53.476-18.548 20.234-15.898 33.001-40.468 33.001-68.17 0-27.7-13.008-52.27-33.001-68.169C155.314 7.608 173.862.622 194.096.622c47.936 0 86.718 39.023 86.718 86.718z" fill="#F79E1B"/></svg>