<svg width="392" height="309" fill="none" xmlns="http://www.w3.org/2000/svg"><mask id="a" maskUnits="userSpaceOnUse" x="0" y="0" width="392" height="309"><rect width="392" height="309" rx="150" fill="#C4C4C4"/></mask><g mask="url(#a)"><path d="M15 294V14h362v280H15z" fill="#FFEE78"/><path d="M196 14h181v280H196V14z" fill="#FCD232"/><path d="M377-1H15C6.716-1 0 5.716 0 14v280c0 8.284 6.716 15 15 15h362c8.284 0 15-6.716 15-15V14c0-8.284-6.716-15-15-15zM150 199v-90h92v90h-92zM120 94v45H30V89h90v5zm-90 75h90v50H30v-50zm242-75v-5h90v50h-90V94zm0 120v-45h90v50h-90v-5zm90-155H257c-8.284 0-15 6.716-15 15v5h-31V50.213L232.213 29H362v30zM189.787 29l-4.394 4.394A14.995 14.995 0 00181 44v35h-31v-5c0-8.284-6.716-15-15-15H30V29h159.787zM30 249h105c8.284 0 15-6.716 15-15v-5h31v28.787L159.787 279H30v-30zm172.213 30l4.394-4.394A14.995 14.995 0 00211 264v-35h31v5c0 8.284 6.716 15 15 15h105v30H202.213z" fill="#FCD232"/><path d="M377-1H196v110h46v90h-46v110h181c8.284 0 15-6.716 15-15V14c0-8.284-6.716-15-15-15zm-15 280H202.213l4.394-4.394A14.995 14.995 0 00211 264v-35h31v5c0 8.284 6.716 15 15 15h105v30zm0-60h-90v-50h90v50zm0-80h-90V89h90v50zm0-80H257c-8.284 0-15 6.716-15 15v5h-31V50.213L232.213 29H362v30z" fill="#F7B90F"/></g></svg>